# xmcd
#
# Track frame offsets:
#	150
#	29621
#	52684
#	77483
#	98833
#	123534
#	150102
#	169629
#	198123
#	221221
#	250084
#	278308
#
# Disc length: 4379 seconds
#
# Revision: 1
# Processed by: cddbd v1.4PL0 Copyright (c) Steve Scherf et al.
# Submitted via: EasyCDDAExtractor 5.0.6
#
DISCID=8b11190c
DTITLE=Walter Trout Band - Tellin' Stories
DYEAR=1994
DGENRE=Blues
TTITLE0=I Can Tell
TTITLE1=Tremble
TTITLE2=Wanna See The Morning
TTITLE3=I Need To Belong
TTITLE4=Runnin' Blues
TTITLE5=On The Rise
TTITLE6=Time For Movin' On
TTITLE7=Head Hung Down
TTITLE8=Please Don't Go
TTITLE9=Tellin' Stories
TTITLE10=Somebody's Cryin'
TTITLE11=Take Care Of Business
EXTD=
EXTT0=
EXTT1=
EXTT2=
EXTT3=
EXTT4=
EXTT5=
EXTT6=
EXTT7=
EXTT8=
EXTT9=
EXTT10=
EXTT11=
PLAYORDER=
